<svg width="340" height="100" viewBox="0 0 340 100" fill="none" xmlns="http://www.w3.org/2000/svg" aria-hidden="true">
    <!-- Pièces puzzle principales -->
    <path d="M30 20 q-10 10 0 20 q10 10 20 0 q-5 -5 0 -10 q5 -5 0 -10 q-10 -10 -20 0 Z" fill="#23262a" stroke="#444" stroke-width="2.5" opacity="0.45"/>
    <path d="M80 60 q-8 8 0 16 q8 8 16 0 q-4 -4 0 -8 q4 -4 0 -8 q-8 -8 -16 0 Z" fill="#23262a" stroke="#444" stroke-width="2.5" opacity="0.38"/>
    <path d="M140 30 q-10 10 0 20 q10 10 20 0 q-5 -5 0 -10 q5 -5 0 -10 q-10 -10 -20 0 Z" fill="#23262a" stroke="#444" stroke-width="2.5" opacity="0.32"/>
    <path d="M200 65 q-8 8 0 16 q8 8 16 0 q-4 -4 0 -8 q4 -4 0 -8 q-8 -8 -16 0 Z" fill="#23262a" stroke="#444" stroke-width="2.5" opacity="0.35"/>
    <path d="M260 18 q-10 10 0 20 q10 10 20 0 q-5 -5 0 -10 q5 -5 0 -10 q-10 -10 -20 0 Z" fill="#23262a" stroke="#444" stroke-width="2.5" opacity="0.28"/>
    <path d="M290 60 q-8 8 0 16 q8 8 16 0 q-4 -4 0 -8 q4 -4 0 -8 q-8 -8 -16 0 Z" fill="#23262a" stroke="#444" stroke-width="2.5" opacity="0.22"/>
    <!-- Pièces supplémentaires -->
    <path d="M60 10 q-6 6 0 12 q6 6 12 0 q-3 -3 0 -6 q3 -3 0 -6 q-6 -6 -12 0 Z" fill="#23262a" stroke="#444" stroke-width="1.5" opacity="0.22"/>
    <path d="M110 80 q-5 5 0 10 q5 5 10 0 q-2.5 -2.5 0 -5 q2.5 -2.5 0 -5 q-5 -5 -10 0 Z" fill="#23262a" stroke="#444" stroke-width="1.5" opacity="0.18"/>
    <path d="M180 10 q-7 7 0 14 q7 7 14 0 q-3.5 -3.5 0 -7 q3.5 -3.5 0 -7 q-7 -7 -14 0 Z" fill="#23262a" stroke="#444" stroke-width="1.5" opacity="0.16"/>
    <path d="M320 40 q-6 6 0 12 q6 6 12 0 q-3 -3 0 -6 q3 -3 0 -6 q-6 -6 -12 0 Z" fill="#23262a" stroke="#444" stroke-width="1.5" opacity="0.13"/>
    <path d="M220 90 q-5 5 0 10 q5 5 10 0 q-2.5 -2.5 0 -5 q2.5 -2.5 0 -5 q-5 -5 -10 0 Z" fill="#23262a" stroke="#444" stroke-width="1.5" opacity="0.12"/>
</svg>